<?xml version="1.0" encoding="UTF-8" standalone="no"?><!DOCTYPE svg PUBLIC "-//W3C//DTD SVG 1.1//EN" "http://www.w3.org/Graphics/SVG/1.1/DTD/svg11.dtd"><svg width="100%" height="100%" viewBox="0 0 1180 1296" version="1.1" xmlns="http://www.w3.org/2000/svg" xmlns:xlink="http://www.w3.org/1999/xlink" xml:space="preserve" xmlns:serif="http://www.serif.com/" style="fill-rule:evenodd;clip-rule:evenodd;stroke-linejoin:round;stroke-miterlimit:2;"><path d="M300.453,402.253c12.653,-27.492 14.044,-59.874 31.339,-85.181c7.521,-11.005 18.189,-21.729 27.587,-31.099c19.753,-19.693 40.725,-38.166 61.194,-57.103c26.815,-25.099 53.496,-50.34 80.044,-75.721c9.903,-9.507 19.906,-18.974 29.453,-28.842c10.253,-10.6 20.406,-24.391 32.762,-32.318c-8.067,76.398 -26.229,96.591 -71.752,154.415c68.423,-39.418 162.264,-43.464 239.403,-37.05c-12.075,4.547 -24.683,7.717 -36.826,12.132c-32.615,11.97 -62.838,29.656 -89.25,52.228c21.905,0.585 80.154,14.885 100.004,23.739c17.175,4.429 33.903,11.296 50.338,17.907c84.689,34.066 155.401,88.77 202.162,168.334c43.438,73.907 59.346,162.953 37.396,246.441c-30.268,115.133 -117.536,197.99 -217.287,255.932c-39.08,22.701 -79.994,40.03 -122.292,55.745c-21.138,7.855 -44.437,13.896 -64.502,24.157c9.815,1.76 -66.526,112.802 -158.074,194c-1.532,-1.906 -3.159,-3.771 -4.468,-5.844c-20.579,-24.948 -29.229,-66.635 -27.059,-98.208c7.174,-104.396 105.109,-169.156 176.833,-231.651c75.639,-65.909 166.156,-146.466 173.252,-253.434c4.61,-69.477 -18.581,-115.664 -63.229,-166.65c-28.511,-26.237 -52.695,-43.761 -89.499,-57.006c-50.117,-12.459 -94.122,-17.281 -144.082,0.054c-63.733,22.115 -109.728,70.004 -138.568,129.739c-30.886,-9.397 -59.365,-22.964 -84.183,-43.989c-13.741,-11.64 -22.147,-23.156 -23.669,-41.46c9.813,-9.45 21.091,-16.78 31.899,-25.01c23.762,-18.092 45.239,-38.807 61.074,-64.257Z" style="fill:url(#_Linear1);fill-rule:nonzero;"/><path d="M590.226,1065.97c9.815,1.76 49.134,-8.197 61.754,-10.499c40.542,-7.396 78.031,-13.324 118.862,-18.491c13.306,-1.683 66.006,-11.752 97.374,-23.104c32.524,-11.771 51.903,-16.291 97.769,-47.52c49.829,-33.928 93.999,-82.969 95.33,-81.681c0.498,2.089 -1.16,44.826 -13.793,84.766c-6.318,19.977 -20.706,54.225 -45.757,86.821c-17.448,22.703 -42.811,44.982 -60.222,57.293c-31.345,22.163 -76.06,39.933 -114.664,47.824c-22.933,4.687 -67.029,10.089 -100.442,12.289c-67.662,4.454 -202.737,5.104 -294.285,86.302c-1.532,-1.906 -3.159,-3.771 -4.468,-5.844c1.434,-6.323 0.069,-13.135 1.288,-19.562c4.573,-24.136 16.048,-51.094 29.077,-71.886c23.693,-37.812 59.951,-63.5 99.272,-83.125c10.121,-5.042 21.855,-11.062 32.905,-13.583Z" style="fill:url(#_Linear2);fill-rule:nonzero;"/><path d="M296.636,1189.82c-0.99,-0.906 -1.893,-1.813 -2.782,-2.823c-37.634,-42.76 -63.767,-107.063 -60.068,-164.503c2.199,-34.153 14.764,-66.313 32.725,-95.163c73.304,-117.744 202.495,-123.249 307.693,-193.603c28.167,-18.837 52.907,-41.371 71.146,-70.127c4.364,-6.879 12.664,-24.292 17.84,-28.821l1.189,0.621c-1.768,35.556 -11.974,73.271 -26.714,105.573c-12.106,26.526 -28.046,52.783 -47.4,74.668c-28.143,31.821 -63.862,56.747 -98.284,81.271c-43.676,31.118 -87.096,62.407 -122.349,103.298c-43.539,50.505 -62.105,109.974 -57.283,176.171c1.646,12.813 4.25,25.49 9.061,37.521c-6.788,-5.125 -21.289,-16.666 -24.774,-24.083Z" style="fill:url(#_Linear3);fill-rule:nonzero;"/><defs><linearGradient id="_Linear1" x1="0" y1="0" x2="1" y2="0" gradientUnits="userSpaceOnUse" gradientTransform="matrix(-344.524,-736.131,736.131,-344.524,787.499,1073.6)"><stop offset="0" style="stop-color:#2c1266;stop-opacity:1"/><stop offset="0.45" style="stop-color:#521075;stop-opacity:1"/><stop offset="1" style="stop-color:#af0b98;stop-opacity:1"/></linearGradient><linearGradient id="_Linear2" x1="0" y1="0" x2="1" y2="0" gradientUnits="userSpaceOnUse" gradientTransform="matrix(-577.886,241.668,-241.668,-577.886,1028.59,962.011)"><stop offset="0" style="stop-color:#fa9728;stop-opacity:1"/><stop offset="1" style="stop-color:#961c79;stop-opacity:1"/></linearGradient><linearGradient id="_Linear3" x1="0" y1="0" x2="1" y2="0" gradientUnits="userSpaceOnUse" gradientTransform="matrix(199.727,-310.865,310.865,199.727,273.913,1125.75)"><stop offset="0" style="stop-color:#2e135e;stop-opacity:1"/><stop offset="0.5" style="stop-color:#63187b;stop-opacity:1"/><stop offset="1" style="stop-color:#741a85;stop-opacity:1"/></linearGradient></defs></svg>